<?xml version="1.0" ?>
<!-- Uploaded to: SVG Repo, www.svgrepo.com, Generator: SVG Repo Mixer Tools -->
<svg width="800px" height="800px" viewBox="0 0 64 64" xmlns="http://www.w3.org/2000/svg">
<g data-name="20_Online Learnning" id="_20_Online_Learnning">
<path d="M59,49H5a1,1,0,0,1-1-1V8A1,1,0,0,1,5,7H59a1,1,0,0,1,1,1V48A1,1,0,0,1,59,49Z" style="fill:#0455bf"/>
<path d="M46,47A40,40,0,0,1,6,7H5A1,1,0,0,0,4,8V48a1,1,0,0,0,1,1H59a1,1,0,0,0,1-1V47Z" style="fill:#004787"/>
<path d="M55,45H9a1,1,0,0,1-1-1V12a1,1,0,0,1,1-1H55a1,1,0,0,1,1,1V44A1,1,0,0,1,55,45Z" style="fill:#fdfeff"/>
<path d="M42,43A32,32,0,0,1,10,11H9a1,1,0,0,0-1,1V44a1,1,0,0,0,1,1H55a1,1,0,0,0,1-1V43Z" style="fill:#dfeaef"/>
<rect height="14" style="fill:#0455bf" width="2" x="45" y="22"/>
<rect height="14" style="fill:#004787" width="1" x="45" y="23"/>
<path d="M48,43H44a1,1,0,0,1-1-1V35a1,1,0,0,1,1-1h4a1,1,0,0,1,1,1v7A1,1,0,0,1,48,43Z" style="fill:#f74e0c"/>
<path d="M46,41a1,1,0,0,1-1-1V34H44a1,1,0,0,0-1,1v7a1,1,0,0,0,1,1h4a1,1,0,0,0,1-1V41Z" style="fill:#cc2600"/>
<path d="M41,24H21v9a1,1,0,0,0,.311.724,15.5,15.5,0,0,0,21.378,0A1,1,0,0,0,43,33V24Z" style="fill:#0455bf"/>
<path d="M41,24H21v9a1,1,0,0,0,.311.724,15.5,15.5,0,0,0,21.378,0A1,1,0,0,0,43,33V24Z" style="fill:#0455bf"/>
<path d="M43,23H21v2.765L30.861,29.8a3,3,0,0,0,2.274,0L43,25.765V23Z" style="fill:#004787"/>
<path d="M32,29.021a.988.988,0,0,1-.378-.075L16.9,22.926a1,1,0,0,1,0-1.852l14.727-6.02a.99.99,0,0,1,.756,0l14.727,6.02a1,1,0,0,1,0,1.852l-14.727,6.02A.988.988,0,0,1,32,29.021Z" style="fill:#0455bf"/>
<path d="M53,57H11a9.01,9.01,0,0,1-9-9,1,1,0,0,1,1-1H61a1,1,0,0,1,1,1A9.01,9.01,0,0,1,53,57Z" style="fill:#0455bf"/>
<path d="M55,55H13a9.01,9.01,0,0,1-8.941-8H3a1,1,0,0,0-1,1,9.01,9.01,0,0,0,9,9H53a8.984,8.984,0,0,0,7.276-3.724A8.942,8.942,0,0,1,55,55Z" style="fill:#004787"/>
<polygon points="39 50 25 50 23 47 41 47 39 50" style="fill:#febc00"/>
<path d="M24.667,47H23l2,3H39l.667-1H28.4A4.492,4.492,0,0,1,24.667,47Z" style="fill:#edaa03"/>
</g>
</svg>