<svg width="36" height="36" viewBox="0 0 36 36" fill="none" xmlns="http://www.w3.org/2000/svg">
<rect width="36" height="36" rx="8" fill="#EFF3FA"/>
<path d="M18 8C15.38 8 13.25 10.13 13.25 12.75C13.25 15.32 15.26 17.4 17.88 17.49C17.96 17.48 18.04 17.48 18.1 17.49C18.12 17.49 18.13 17.49 18.15 17.49C18.16 17.49 18.16 17.49 18.17 17.49C20.73 17.4 22.74 15.32 22.75 12.75C22.75 10.13 20.62 8 18 8Z" fill="#13296A"/>
<path d="M23.08 20.1509C20.29 18.2909 15.74 18.2909 12.93 20.1509C11.66 21.0009 10.96 22.1509 10.96 23.3809C10.96 24.6109 11.66 25.7509 12.92 26.5909C14.32 27.5309 16.16 28.0009 18 28.0009C19.84 28.0009 21.68 27.5309 23.08 26.5909C24.34 25.7409 25.04 24.6009 25.04 23.3609C25.03 22.1309 24.34 20.9909 23.08 20.1509ZM20 24.1309H18.75V25.3809C18.75 25.7909 18.41 26.1309 18 26.1309C17.59 26.1309 17.25 25.7909 17.25 25.3809V24.1309H16C15.59 24.1309 15.25 23.7909 15.25 23.3809C15.25 22.9709 15.59 22.6309 16 22.6309H17.25V21.3809C17.25 20.9709 17.59 20.6309 18 20.6309C18.41 20.6309 18.75 20.9709 18.75 21.3809V22.6309H20C20.41 22.6309 20.75 22.9709 20.75 23.3809C20.75 23.7909 20.41 24.1309 20 24.1309Z" fill="#13296A"/>
</svg>
