<svg width="36" height="36" viewBox="0 0 36 36" fill="none" xmlns="http://www.w3.org/2000/svg">
<rect width="36" height="36" rx="8" fill="#EFF3FA"/>
<path d="M16.0495 8.5293L10.0295 12.4593C8.09953 13.7193 8.09953 16.5393 10.0295 17.7993L16.0495 21.7293C17.1295 22.4393 18.9095 22.4393 19.9895 21.7293L25.9795 17.7993C27.8995 16.5393 27.8995 13.7293 25.9795 12.4693L19.9895 8.5393C18.9095 7.8193 17.1295 7.8193 16.0495 8.5293Z" stroke="#13296A" stroke-width="1.5" stroke-linecap="round" stroke-linejoin="round"/>
<path d="M11.6301 19.0801L11.6201 23.7701C11.6201 25.0401 12.6001 26.4001 13.8001 26.8001L16.9901 27.8601C17.5401 28.0401 18.4501 28.0401 19.0101 27.8601L22.2001 26.8001C23.4001 26.4001 24.3801 25.0401 24.3801 23.7701V19.1301" stroke="#13296A" stroke-width="1.5" stroke-linecap="round" stroke-linejoin="round"/>
<path d="M27.4004 21V15" stroke="#13296A" stroke-width="1.5" stroke-linecap="round" stroke-linejoin="round"/>
</svg>
