<svg width="28" height="28" viewBox="0 0 28 28" fill="none" xmlns="http://www.w3.org/2000/svg">
<path d="M16.0183 24.5007C15.8135 24.8545 15.5191 25.1483 15.1649 25.3526C14.8106 25.5568 14.4089 25.6643 14 25.6643C13.5911 25.6643 13.1894 25.5568 12.8351 25.3526C12.4809 25.1483 12.1865 24.8545 11.9817 24.5007M21.1563 12.834C21.8342 19.1048 24.5 21.0007 24.5 21.0007H3.5C3.5 21.0007 7 18.5122 7 9.80065C7 7.82082 7.73733 5.92148 9.04983 4.52148C10.3635 3.12148 12.145 2.33398 14 2.33398C14.3932 2.33398 14.784 2.36898 15.1667 2.43898L21.1563 12.834ZM22.1667 9.33398C23.0949 9.33398 23.9852 8.96524 24.6415 8.30886C25.2979 7.65248 25.6667 6.76224 25.6667 5.83398C25.6667 4.90573 25.2979 4.01549 24.6415 3.35911C23.9852 2.70273 23.0949 2.33398 22.1667 2.33398C21.2384 2.33398 20.3482 2.70273 19.6918 3.35911C19.0354 4.01549 18.6667 4.90573 18.6667 5.83398C18.6667 6.76224 19.0354 7.65248 19.6918 8.30886C20.3482 8.96524 21.2384 9.33398 22.1667 9.33398Z" stroke="#282828" stroke-width="1.5" stroke-linecap="round" stroke-linejoin="round"/>
<ellipse cx="6.3" cy="6.3" rx="6.3" ry="6.3" transform="matrix(-1 0 0 1 26.5996 0)" fill="#2D88D4"/>
</svg>
