<svg width="16" height="16" viewBox="0 0 16 16" fill="none" xmlns="http://www.w3.org/2000/svg">
<path d="M8.00016 1.3335C4.32416 1.3335 1.3335 4.32416 1.3335 8.00016V10.7622C1.3335 11.4448 1.9315 12.0002 2.66683 12.0002H3.3335C3.51031 12.0002 3.67988 11.9299 3.8049 11.8049C3.92992 11.6799 4.00016 11.5103 4.00016 11.3335V7.90483C4.00016 7.72802 3.92992 7.55845 3.8049 7.43342C3.67988 7.3084 3.51031 7.23816 3.3335 7.23816H2.72816C3.09883 4.65816 5.31883 2.66683 8.00016 2.66683C10.6815 2.66683 12.9015 4.65816 13.2722 7.23816H12.6668C12.49 7.23816 12.3204 7.3084 12.1954 7.43342C12.0704 7.55845 12.0002 7.72802 12.0002 7.90483V12.0002C12.0002 12.7355 11.4022 13.3335 10.6668 13.3335H9.3335V12.6668H6.66683V14.6668H10.6668C12.1375 14.6668 13.3335 13.4708 13.3335 12.0002C14.0688 12.0002 14.6668 11.4448 14.6668 10.7622V8.00016C14.6668 4.32416 11.6762 1.3335 8.00016 1.3335Z" fill="#FCFAFA"/>
</svg>
