<svg width="36" height="36" viewBox="0 0 36 36" fill="none" xmlns="http://www.w3.org/2000/svg">
<rect width="36" height="36" rx="8" fill="#EFF3FA"/>
<path d="M27.97 24.33C27.97 24.69 27.89 25.06 27.72 25.42C27.55 25.78 27.33 26.12 27.04 26.44C26.55 26.98 26.01 27.37 25.4 27.62C24.8 27.87 24.15 28 23.45 28C22.43 28 21.34 27.76 20.19 27.27C19.04 26.78 17.89 26.12 16.75 25.29C15.6 24.45 14.51 23.52 13.47 22.49C12.44 21.45 11.51 20.36 10.68 19.22C9.86 18.08 9.2 16.94 8.72 15.81C8.24 14.67 8 13.58 8 12.54C8 11.86 8.12 11.21 8.36 10.61C8.6 10 8.98 9.44 9.51 8.94C10.15 8.31 10.85 8 11.59 8C11.87 8 12.15 8.06 12.4 8.18C12.66 8.3 12.89 8.48 13.07 8.74L15.39 12.01C15.57 12.26 15.7 12.49 15.79 12.71C15.88 12.92 15.93 13.13 15.93 13.32C15.93 13.56 15.86 13.8 15.72 14.03C15.59 14.26 15.4 14.5 15.16 14.74L14.4 15.53C14.29 15.64 14.24 15.77 14.24 15.93C14.24 16.01 14.25 16.08 14.27 16.16C14.3 16.24 14.33 16.3 14.35 16.36C14.53 16.69 14.84 17.12 15.28 17.64C15.73 18.16 16.21 18.69 16.73 19.22C17.27 19.75 17.79 20.24 18.32 20.69C18.84 21.13 19.27 21.43 19.61 21.61C19.66 21.63 19.72 21.66 19.79 21.69C19.87 21.72 19.95 21.73 20.04 21.73C20.21 21.73 20.34 21.67 20.45 21.56L21.21 20.81C21.46 20.56 21.7 20.37 21.93 20.25C22.16 20.11 22.39 20.04 22.64 20.04C22.83 20.04 23.03 20.08 23.25 20.17C23.47 20.26 23.7 20.39 23.95 20.56L27.26 22.91C27.52 23.09 27.7 23.3 27.81 23.55C27.91 23.8 27.97 24.05 27.97 24.33Z" stroke="#A7A7A7" stroke-width="1.5" stroke-miterlimit="10"/>
<path d="M24.5 15C24.5 14.4 24.03 13.48 23.33 12.73C22.69 12.04 21.84 11.5 21 11.5" stroke="#A7A7A7" stroke-width="1.5" stroke-linecap="round" stroke-linejoin="round"/>
<path d="M28 15C28 11.13 24.87 8 21 8" stroke="#A7A7A7" stroke-width="1.5" stroke-linecap="round" stroke-linejoin="round"/>
</svg>
