<svg width="36" height="36" viewBox="0 0 36 36" fill="none" xmlns="http://www.w3.org/2000/svg">
<rect width="36" height="36" rx="8" fill="#EFF3FA"/>
<path d="M16.0495 8.52997L10.0295 12.46C8.09953 13.72 8.09953 16.54 10.0295 17.8L16.0495 21.73C17.1295 22.44 18.9095 22.44 19.9895 21.73L25.9795 17.8C27.8995 16.54 27.8995 13.73 25.9795 12.47L19.9895 8.53997C18.9095 7.81997 17.1295 7.81997 16.0495 8.52997Z" stroke="#8A8A8A" stroke-width="1.5" stroke-linecap="round" stroke-linejoin="round"/>
<path d="M11.6301 19.08L11.6201 23.77C11.6201 25.04 12.6001 26.4 13.8001 26.8L16.9901 27.86C17.5401 28.04 18.4501 28.04 19.0101 27.86L22.2001 26.8C23.4001 26.4 24.3801 25.04 24.3801 23.77V19.13" stroke="#8A8A8A" stroke-width="1.5" stroke-linecap="round" stroke-linejoin="round"/>
<path d="M27.4004 21V15" stroke="#8A8A8A" stroke-width="1.5" stroke-linecap="round" stroke-linejoin="round"/>
</svg>
