<svg width="17" height="17" viewBox="0 0 17 17" fill="none" xmlns="http://www.w3.org/2000/svg">
<path id="Vector" d="M12.2292 10.843C13.1975 9.52169 13.6312 7.88349 13.4435 6.25615C13.2558 4.62881 12.4606 3.13234 11.217 2.06613C9.97334 0.999923 8.37297 0.442605 6.73606 0.505679C5.09915 0.568752 3.54641 1.24756 2.38849 2.40631C1.23058 3.56505 0.552876 5.11828 0.490975 6.75524C0.429073 8.39219 0.987535 9.99216 2.05463 11.235C3.12173 12.4779 4.61877 13.2721 6.24624 13.4586C7.87372 13.6451 9.51161 13.2102 10.8322 12.241H10.8312C10.8612 12.281 10.8932 12.319 10.9292 12.356L14.7792 16.206C14.9667 16.3936 15.2211 16.4991 15.4864 16.4992C15.7516 16.4993 16.0061 16.394 16.1937 16.2065C16.3814 16.019 16.4868 15.7646 16.4869 15.4994C16.487 15.2341 16.3817 14.9796 16.1942 14.792L12.3442 10.942C12.3085 10.9058 12.27 10.8724 12.2292 10.842V10.843ZM12.4872 6.999C12.4872 7.72127 12.345 8.43647 12.0686 9.10376C11.7922 9.77105 11.387 10.3774 10.8763 10.8881C10.3656 11.3988 9.75928 11.8039 9.09198 12.0803C8.42469 12.3567 7.7095 12.499 6.98723 12.499C6.26496 12.499 5.54976 12.3567 4.88247 12.0803C4.21518 11.8039 3.60886 11.3988 3.09814 10.8881C2.58742 10.3774 2.18229 9.77105 1.90589 9.10376C1.62949 8.43647 1.48723 7.72127 1.48723 6.999C1.48723 5.54031 2.06669 4.14136 3.09814 3.10991C4.12959 2.07846 5.52854 1.499 6.98723 1.499C8.44592 1.499 9.84486 2.07846 10.8763 3.10991C11.9078 4.14136 12.4872 5.54031 12.4872 6.999Z" fill="#8A8A8A"/>
</svg>
