<svg width="24" height="24" viewBox="0 0 24 24" fill="none" xmlns="http://www.w3.org/2000/svg">
<path d="M12 16C9.792 16 8 14.208 8 12C8 9.792 9.792 8 12 8C14.208 8 16 9.792 16 12C16 14.208 14.208 16 12 16ZM12 9.6C10.6773 9.6 9.6 10.6773 9.6 12C9.6 13.3227 10.6773 14.4 12 14.4C13.3227 14.4 14.4 13.3227 14.4 12C14.4 10.6773 13.3227 9.6 12 9.6Z" fill="#282828"/>
<path d="M15.5688 23.9952C15.3346 23.9952 15.1004 23.9599 14.8662 23.901C14.1747 23.7008 13.5948 23.2416 13.2268 22.594L13.0929 22.3584C12.4349 21.1574 11.5316 21.1574 10.8736 22.3584L10.7509 22.5822C10.3829 23.2416 9.80297 23.7126 9.11152 23.901C8.40892 24.1012 7.68402 23.9952 7.07063 23.6066L5.15242 22.4409C4.47212 22.0287 3.98141 21.3576 3.76952 20.5451C3.56877 19.7326 3.66914 18.8965 4.05948 18.1783C4.3829 17.5777 4.47212 17.0361 4.28253 16.6946C4.09294 16.3531 3.61338 16.1529 2.95539 16.1529C1.32714 16.1529 0 14.7517 0 13.0325V10.9601C0 9.2409 1.32714 7.83966 2.95539 7.83966C3.61338 7.83966 4.09294 7.63948 4.28253 7.298C4.47212 6.95652 4.39405 6.41486 4.05948 5.81433C3.66914 5.09604 3.56877 4.24823 3.76952 3.44752C3.97026 2.63503 4.46097 1.96385 5.15242 1.55172L7.08178 0.385974C8.34201 -0.402962 10.0037 0.0562693 10.7621 1.41041L10.8959 1.64592C11.5539 2.84699 12.4572 2.84699 13.1152 1.64592L13.2379 1.42219C13.9963 0.0562693 15.658 -0.402962 16.9294 0.397749L18.8476 1.56349C19.5279 1.97562 20.0186 2.64681 20.2305 3.45929C20.4312 4.27178 20.3309 5.10782 19.9405 5.82611C19.6171 6.42664 19.5279 6.9683 19.7175 7.30978C19.9071 7.65126 20.3866 7.85143 21.0446 7.85143C22.6729 7.85143 24 9.25268 24 10.9719V13.0443C24 14.7635 22.6729 16.1647 21.0446 16.1647C20.3866 16.1647 19.9071 16.3649 19.7175 16.7064C19.5279 17.0478 19.6059 17.5895 19.9405 18.19C20.3309 18.9083 20.4424 19.7561 20.2305 20.5568C20.0297 21.3693 19.539 22.0405 18.8476 22.4527L16.9182 23.6184C16.4944 23.8657 16.0372 23.9952 15.5688 23.9952ZM11.9888 19.6384C12.9814 19.6384 13.9071 20.2978 14.5428 21.4635L14.6654 21.6873C14.7993 21.9345 15.0223 22.1112 15.29 22.1818C15.5576 22.2525 15.8253 22.2171 16.0483 22.0758L17.9777 20.8983C18.2677 20.7217 18.4907 20.4273 18.5799 20.0741C18.6691 19.7208 18.6245 19.3558 18.4572 19.0496C17.8216 17.8957 17.7435 16.7064 18.2342 15.7997C18.7249 14.893 19.7398 14.3749 21.0112 14.3749C21.7249 14.3749 22.2937 13.7743 22.2937 13.0207V10.9483C22.2937 10.2065 21.7249 9.59416 21.0112 9.59416C19.7398 9.59416 18.7249 9.07605 18.2342 8.16936C17.7435 7.26268 17.8216 6.07338 18.4572 4.91942C18.6245 4.61326 18.6691 4.24823 18.5799 3.89498C18.4907 3.54172 18.2788 3.25912 17.9888 3.07071L16.0595 1.90497C15.5799 1.59882 14.9442 1.77544 14.6543 2.29355L14.5316 2.51728C13.8959 3.68302 12.9703 4.34243 11.9777 4.34243C10.9851 4.34243 10.0595 3.68302 9.42379 2.51728L9.30112 2.28178C9.02231 1.78722 8.39777 1.61059 7.91822 1.90497L5.98885 3.08249C5.69888 3.25912 5.47584 3.5535 5.38662 3.90675C5.2974 4.26001 5.34201 4.62504 5.50929 4.93119C6.14498 6.08516 6.22305 7.27445 5.73234 8.18114C5.24164 9.08783 4.22677 9.60594 2.95539 9.60594C2.24164 9.60594 1.67286 10.2065 1.67286 10.9601V13.0325C1.67286 13.7743 2.24164 14.3867 2.95539 14.3867C4.22677 14.3867 5.24164 14.9048 5.73234 15.8115C6.22305 16.7181 6.14498 17.9074 5.50929 19.0614C5.34201 19.3676 5.2974 19.7326 5.38662 20.0858C5.47584 20.4391 5.68773 20.7217 5.9777 20.9101L7.90706 22.0758C8.14126 22.2289 8.42007 22.2642 8.67658 22.1936C8.94424 22.1229 9.16729 21.9345 9.31227 21.6873L9.43494 21.4635C10.0706 20.3096 10.9963 19.6384 11.9888 19.6384Z" fill="#282828"/>
</svg>
