<svg width="16" height="16" viewBox="0 0 16 16" fill="none" xmlns="http://www.w3.org/2000/svg">
<g clip-path="url(#clip0_34_5502)">
<path d="M8 11.833C8.27613 11.833 8.5 11.6091 8.5 11.333V7.33301C8.5 7.05687 8.27613 6.83301 8 6.83301C7.72387 6.83301 7.5 7.05687 7.5 7.33301V11.333C7.5 11.6091 7.72387 11.833 8 11.833Z" fill="#1A1A1A"/>
<path d="M7.99998 4.66699C8.36818 4.66699 8.66665 4.96547 8.66665 5.33366C8.66665 5.70185 8.36818 6.00033 7.99998 6.00033C7.63178 6.00033 7.33331 5.70185 7.33331 5.33366C7.33331 4.96547 7.63178 4.66699 7.99998 4.66699Z" fill="#1A1A1A"/>
<path fill-rule="evenodd" clip-rule="evenodd" d="M0.833313 7.99967C0.833313 4.04163 4.04194 0.833008 7.99998 0.833008C11.958 0.833008 15.1666 4.04163 15.1666 7.99967C15.1666 11.9577 11.958 15.1663 7.99998 15.1663C4.04194 15.1663 0.833313 11.9577 0.833313 7.99967ZM7.99998 1.83301C4.59423 1.83301 1.83331 4.59392 1.83331 7.99967C1.83331 11.4054 4.59423 14.1663 7.99998 14.1663C11.4057 14.1663 14.1666 11.4054 14.1666 7.99967C14.1666 4.59392 11.4057 1.83301 7.99998 1.83301Z" fill="#1A1A1A"/>
</g>
<defs>
<clipPath id="clip0_34_5502">
<rect width="16" height="16" fill="white"/>
</clipPath>
</defs>
</svg>
