<svg width="25" height="24" viewBox="0 0 25 24" fill="none" xmlns="http://www.w3.org/2000/svg">
<path fill-rule="evenodd" clip-rule="evenodd" d="M9.5 6C9.5 4.34315 8.15685 3 6.5 3H4.5C2.84315 3 1.5 4.34315 1.5 6V8C1.5 9.65685 2.84315 11 4.5 11H6.5C8.15685 11 9.5 9.65685 9.5 8V6ZM7.5 6C7.5 5.44772 7.05228 5 6.5 5H4.5C3.94772 5 3.5 5.44772 3.5 6V8C3.5 8.55228 3.94772 9 4.5 9H6.5C7.05228 9 7.5 8.55228 7.5 8V6Z" fill="#BF1D28"/>
<path fill-rule="evenodd" clip-rule="evenodd" d="M9.5 16C9.5 14.3431 8.15685 13 6.5 13H4.5C2.84315 13 1.5 14.3431 1.5 16V18C1.5 19.6569 2.84315 21 4.5 21H6.5C8.15685 21 9.5 19.6569 9.5 18V16ZM7.5 16C7.5 15.4477 7.05228 15 6.5 15H4.5C3.94772 15 3.5 15.4477 3.5 16V18C3.5 18.5523 3.94772 19 4.5 19H6.5C7.05228 19 7.5 18.5523 7.5 18V16Z" fill="#BF1D28"/>
<path d="M11.5 7C11.5 6.44772 11.9477 6 12.5 6H22.5C23.0523 6 23.5 6.44772 23.5 7C23.5 7.55228 23.0523 8 22.5 8H12.5C11.9477 8 11.5 7.55228 11.5 7Z" fill="#BF1D28"/>
<path d="M11.5 17C11.5 16.4477 11.9477 16 12.5 16H22.5C23.0523 16 23.5 16.4477 23.5 17C23.5 17.5523 23.0523 18 22.5 18H12.5C11.9477 18 11.5 17.5523 11.5 17Z" fill="#BF1D28"/>
</svg>
