<svg width="16" height="17" viewBox="0 0 16 17" fill="none" xmlns="http://www.w3.org/2000/svg">
<path d="M1.33331 9.05351V10.5002C1.33331 13.8335 2.66665 15.1668 5.99998 15.1668H9.99998C13.3333 15.1668 14.6666 13.8335 14.6666 10.5002V6.50016C14.6666 3.16683 13.3333 1.8335 9.99998 1.8335H5.99998C2.66665 1.8335 1.33331 3.16683 1.33331 6.50016" stroke="white" stroke-linecap="round" stroke-linejoin="round"/>
<path d="M6.73997 7.93311H4.97331C4.55331 7.93311 4.21332 8.27307 4.21332 8.69307V12.1064H6.73997V7.93311V7.93311Z" stroke="white" stroke-miterlimit="10" stroke-linecap="round" stroke-linejoin="round"/>
<path d="M8.50667 4.8999H7.49333C7.07333 4.8999 6.73334 5.23991 6.73334 5.65991V12.0999H9.26001V5.65991C9.26001 5.23991 8.92667 4.8999 8.50667 4.8999Z" stroke="white" stroke-miterlimit="10" stroke-linecap="round" stroke-linejoin="round"/>
<path d="M11.0333 9.06641H9.26666V12.0998H11.7933V9.82642C11.7867 9.40642 11.4467 9.06641 11.0333 9.06641Z" stroke="white" stroke-miterlimit="10" stroke-linecap="round" stroke-linejoin="round"/>
</svg>
