<svg width="16" height="17" viewBox="0 0 16 17" fill="none" xmlns="http://www.w3.org/2000/svg">
<path d="M8 11C6.62 11 5.5 9.88 5.5 8.5C5.5 7.12 6.62 6 8 6C9.38 6 10.5 7.12 10.5 8.5C10.5 9.88 9.38 11 8 11ZM8 7C7.17333 7 6.5 7.67333 6.5 8.5C6.5 9.32667 7.17333 10 8 10C8.82667 10 9.5 9.32667 9.5 8.5C9.5 7.67333 8.82667 7 8 7Z" fill="white"/>
<path d="M10.1399 15.2932C9.99992 15.2932 9.85992 15.2732 9.71992 15.2399C9.30659 15.1265 8.95992 14.8665 8.73992 14.4999L8.65992 14.3665C8.26659 13.6865 7.72659 13.6865 7.33325 14.3665L7.25992 14.4932C7.03992 14.8665 6.69325 15.1332 6.27992 15.2399C5.85992 15.3532 5.42659 15.2932 5.05992 15.0732L3.91325 14.4132C3.50659 14.1799 3.21325 13.7999 3.08659 13.3399C2.96659 12.8799 3.02659 12.4065 3.25992 11.9999C3.45325 11.6599 3.50659 11.3532 3.39325 11.1599C3.27992 10.9665 2.99325 10.8532 2.59992 10.8532C1.62659 10.8532 0.833252 10.0599 0.833252 9.08653V7.9132C0.833252 6.93987 1.62659 6.14653 2.59992 6.14653C2.99325 6.14653 3.27992 6.0332 3.39325 5.83987C3.50659 5.64653 3.45992 5.33987 3.25992 4.99987C3.02659 4.5932 2.96659 4.1132 3.08659 3.65987C3.20659 3.19987 3.49992 2.81987 3.91325 2.58653L5.06659 1.92653C5.81992 1.47987 6.81325 1.73987 7.26659 2.50653L7.34659 2.63987C7.73992 3.31987 8.27992 3.31987 8.67325 2.63987L8.74659 2.5132C9.19992 1.73987 10.1933 1.47987 10.9533 1.9332L12.0999 2.5932C12.5066 2.82653 12.7999 3.20653 12.9266 3.66653C13.0466 4.12653 12.9866 4.59987 12.7533 5.00653C12.5599 5.34653 12.5066 5.6532 12.6199 5.84653C12.7333 6.03987 13.0199 6.1532 13.4133 6.1532C14.3866 6.1532 15.1799 6.94653 15.1799 7.91987V9.0932C15.1799 10.0665 14.3866 10.8599 13.4133 10.8599C13.0199 10.8599 12.7333 10.9732 12.6199 11.1665C12.5066 11.3599 12.5533 11.6665 12.7533 12.0065C12.9866 12.4132 13.0533 12.8932 12.9266 13.3465C12.8066 13.8065 12.5133 14.1865 12.0999 14.4199L10.9466 15.0799C10.6933 15.2199 10.4199 15.2932 10.1399 15.2932ZM7.99992 12.8265C8.59325 12.8265 9.14659 13.1999 9.52659 13.8599L9.59992 13.9865C9.67992 14.1265 9.81325 14.2265 9.97325 14.2665C10.1333 14.3065 10.2933 14.2865 10.4266 14.2065L11.5799 13.5399C11.7533 13.4399 11.8866 13.2732 11.9399 13.0732C11.9933 12.8732 11.9666 12.6665 11.8666 12.4932C11.4866 11.8399 11.4399 11.1665 11.7333 10.6532C12.0266 10.1399 12.6333 9.84653 13.3933 9.84653C13.8199 9.84653 14.1599 9.50653 14.1599 9.07987V7.90653C14.1599 7.48653 13.8199 7.13987 13.3933 7.13987C12.6333 7.13987 12.0266 6.84653 11.7333 6.3332C11.4399 5.81987 11.4866 5.14653 11.8666 4.4932C11.9666 4.31987 11.9933 4.1132 11.9399 3.9132C11.8866 3.7132 11.7599 3.5532 11.5866 3.44653L10.4333 2.78653C10.1466 2.6132 9.76659 2.7132 9.59325 3.00653L9.51992 3.1332C9.13992 3.7932 8.58659 4.16653 7.99325 4.16653C7.39992 4.16653 6.84659 3.7932 6.46659 3.1332L6.39325 2.99987C6.22659 2.71987 5.85325 2.61987 5.56659 2.78653L4.41325 3.4532C4.23992 3.5532 4.10659 3.71987 4.05325 3.91987C3.99992 4.11987 4.02659 4.32653 4.12659 4.49987C4.50659 5.1532 4.55325 5.82653 4.25992 6.33987C3.96659 6.8532 3.35992 7.14653 2.59992 7.14653C2.17325 7.14653 1.83325 7.48653 1.83325 7.9132V9.08653C1.83325 9.50653 2.17325 9.8532 2.59992 9.8532C3.35992 9.8532 3.96659 10.1465 4.25992 10.6599C4.55325 11.1732 4.50659 11.8465 4.12659 12.4999C4.02659 12.6732 3.99992 12.8799 4.05325 13.0799C4.10659 13.2799 4.23325 13.4399 4.40659 13.5465L5.55992 14.2065C5.69992 14.2932 5.86659 14.3132 6.01992 14.2732C6.17992 14.2332 6.31325 14.1265 6.39992 13.9865L6.47325 13.8599C6.85325 13.2065 7.40659 12.8265 7.99992 12.8265Z" fill="white"/>
</svg>
